<?xml version="1.0" standalone="no"?>
<!DOCTYPE svg PUBLIC "-//W3C//DTD SVG 20010904//EN"
 "http://www.w3.org/TR/2001/REC-SVG-20010904/DTD/svg10.dtd">
<svg version="1.0" xmlns="http://www.w3.org/2000/svg"
 width="300.000000pt" height="300.000000pt" viewBox="0 0 300.000000 300.000000"
 preserveAspectRatio="xMidYMid meet">
<metadata>
Created by potrace 1.10, written by Peter Selinger 2001-2011
</metadata>
<g transform="translate(0.000000,300.000000) scale(0.100000,-0.100000)"
fill="#000000" stroke="none">
<path d="M1245 2742 c-132 -76 -403 -232 -601 -346 -257 -148 -365 -215 -373
-233 -11 -23 -17 -982 -6 -972 2 3 5 205 5 450 1 450 6 513 39 542 14 13 210
128 329 194 26 14 52 29 57 33 6 4 28 18 50 30 22 12 144 82 270 155 127 73
248 143 270 156 22 12 64 36 93 53 30 17 63 37 75 43 12 7 33 13 47 13 21 0
22 -2 10 -14 -13 -12 -276 -164 -955 -554 -217 -124 -246 -145 -244 -176 1
-18 2 -18 6 -3 4 14 8 16 19 6 11 -9 14 -8 14 6 0 11 5 15 14 12 8 -3 17 1 20
9 3 9 10 13 15 10 8 -6 23 17 25 38 1 8 229 144 411 245 28 16 138 79 245 141
382 221 415 240 433 240 26 0 39 -41 19 -61 -10 -9 -253 -152 -542 -319 -289
-166 -560 -322 -603 -347 l-77 -45 0 -454 c0 -499 -2 -488 59 -445 16 12 32
21 35 21 3 0 6 -54 6 -121 0 -110 2 -120 18 -117 9 2 111 57 225 123 l207 119
0 131 c0 131 0 132 25 143 72 33 642 368 657 386 15 18 18 46 18 201 l0 180
80 44 80 44 0 145 0 144 -22 -14 c-65 -42 -358 -208 -367 -208 -6 0 -11 9 -11
19 0 15 32 38 120 88 l120 68 0 148 0 147 -32 20 c-18 11 -35 20 -38 20 -3 0
-113 -62 -245 -138z m277 -44 c9 -26 8 -96 -1 -120 -6 -17 -35 -40 -86 -68
-87 -48 -135 -86 -135 -106 0 -7 -12 -22 -27 -31 -16 -10 -35 -26 -43 -36 -8
-10 -27 -19 -42 -21 -14 -1 -38 -10 -52 -19 -14 -9 -28 -17 -32 -17 -4 0 -21
-11 -38 -24 -17 -13 -41 -26 -54 -30 -24 -8 -82 1 -82 13 0 4 49 36 110 71
103 60 130 86 115 110 -13 20 -76 1 -130 -40 -5 -4 -30 -19 -55 -32 -25 -14
-81 -46 -125 -72 -84 -48 -99 -53 -111 -35 -9 15 10 31 81 72 62 35 235 135
293 168 17 11 49 29 70 40 20 12 74 43 120 70 45 27 87 49 92 49 6 0 10 5 10
10 0 6 6 10 13 11 6 0 28 11 47 24 40 27 56 30 62 13z m178 -157 c0 -6 -17
-19 -38 -31 -32 -18 -38 -26 -34 -46 5 -29 6 -29 38 -8 13 9 27 14 30 11 4 -3
-9 -15 -27 -26 -37 -23 -54 -27 -44 -11 10 16 -5 12 -41 -11 -19 -11 -38 -18
-43 -15 -5 3 -49 -17 -98 -46 -64 -38 -83 -53 -68 -56 40 -8 41 -23 6 -53 -65
-54 -22 -41 111 34 103 58 134 72 136 60 2 -9 -2 -19 -10 -24 -19 -12 -30 -11
-22 3 4 7 3 8 -5 4 -6 -4 -9 -11 -6 -16 6 -10 -114 -82 -126 -75 -5 3 -30 -7
-56 -22 -40 -23 -44 -29 -26 -31 12 -2 33 4 46 13 27 17 59 11 50 -10 -4 -11
2 -12 26 -5 30 8 30 8 29 -24 -1 -33 -2 -33 -47 -31 -67 4 -68 4 -47 20 20 15
20 15 0 15 -10 0 -30 -9 -44 -20 -43 -34 -48 -27 -49 73 0 50 3 97 7 103 4 6
64 44 135 84 70 40 127 74 127 77 0 2 -4 1 -10 -2 -5 -3 -10 -2 -10 2 0 5 24
23 53 40 62 37 57 35 57 24z m-552 -133 c-6 -18 -442 -268 -447 -256 -1 5 -1
11 1 14 10 9 434 253 441 254 5 0 7 -6 5 -12z m547 2 c-7 -12 -105 -63 -105
-55 0 7 91 65 103 65 4 0 5 -5 2 -10z m-66 -14 c-21 -20 -209 -122 -209 -113
1 12 201 129 209 121 2 -2 2 -6 0 -8z m-310 -71 c17 -49 13 -238 -6 -231 -7 3
-13 0 -13 -6 0 -13 -30 -37 -47 -38 -19 0 -4 28 18 35 10 4 19 11 19 16 0 16
-20 9 -46 -16 -14 -14 -31 -25 -39 -25 -55 0 -148 -67 -161 -115 -6 -25 -164
-121 -164 -100 0 7 34 32 75 56 74 42 91 59 58 59 -15 0 -15 1 0 18 9 9 38 28
64 41 59 30 93 60 93 80 0 10 -3 12 -8 5 -13 -21 -392 -233 -392 -220 0 7 88
64 196 127 108 62 191 115 186 117 -9 3 -84 -27 -114 -45 -4 -2 1 16 12 39 15
33 31 49 72 72 29 15 70 44 91 62 20 19 44 34 53 34 18 0 49 28 41 37 -4 3
-18 -2 -31 -11 -30 -19 -36 -20 -36 -3 0 10 43 43 60 46 4 1 12 -15 19 -34z
m376 16 c-3 -6 -27 -23 -53 -37 -26 -14 -39 -23 -29 -20 36 11 14 -10 -48 -46
-66 -40 -75 -43 -75 -30 0 4 25 20 55 36 30 15 52 32 49 37 -3 5 19 24 48 43
52 33 67 38 53 17z m-487 -53 c-5 -14 -379 -230 -386 -223 -3 3 -1 9 4 14 13
14 368 220 377 221 5 0 7 -5 5 -12z m-478 -68 c0 -5 -39 -32 -87 -61 -49 -28
-103 -60 -122 -71 -28 -18 -33 -19 -30 -5 2 10 54 46 114 81 115 68 125 72
125 56z m234 -22 c-2 -7 -27 -25 -54 -40 -62 -35 -69 -14 -7 24 46 29 69 35
61 16z m-111 -10 c-4 -7 -8 -17 -8 -22 0 -5 -10 -12 -22 -17 -17 -6 -23 -5
-23 5 0 8 10 21 23 29 27 19 41 21 30 5z m185 -50 c-4 -11 -385 -237 -401
-238 -5 0 -7 5 -5 11 3 10 385 237 401 238 5 1 7 -4 5 -11z m-398 -20 c0 -7
-12 -20 -28 -29 -15 -8 -48 -28 -74 -43 -33 -19 -48 -24 -48 -14 0 7 33 32 73
55 84 49 77 46 77 31z m180 -1 c0 -7 -28 -28 -62 -46 -35 -19 -76 -43 -91 -54
-29 -20 -50 -16 -29 5 10 10 172 107 180 108 1 0 2 -6 2 -13z m-110 -10 c0 -7
-30 -31 -67 -52 -85 -50 -83 -49 -83 -33 1 7 33 32 73 55 84 49 77 46 77 30z
m720 0 c0 -8 -11 -19 -25 -25 -30 -14 -35 3 -7 24 22 17 32 17 32 1z m80 -6
c0 -7 -344 -213 -382 -229 -4 -2 -8 2 -8 10 1 11 362 227 383 228 4 0 7 -4 7
-9z m-151 -45 c-18 -13 -153 -86 -160 -86 -24 0 -2 19 74 62 45 26 84 42 86
37 1 -6 1 -11 0 -13z m-909 -185 l0 -199 -36 -21 c-19 -12 -36 -21 -37 -21 -1
0 -3 90 -4 199 l-3 199 33 20 c17 11 35 21 40 21 4 1 7 -89 7 -198z m1078 125
c5 -100 11 -94 -328 -290 -168 -97 -321 -187 -339 -200 -18 -14 -134 -82 -256
-152 -185 -106 -221 -130 -208 -139 9 -7 13 -17 9 -23 -10 -16 -66 -15 -68 1
-4 35 -4 43 0 51 3 4 8 2 13 -5 18 -30 24 12 24 181 l0 177 38 22 37 22 0
-160 0 -160 82 48 c46 26 113 65 151 85 37 20 67 39 67 42 0 3 -25 -9 -55 -26
-30 -17 -55 -27 -55 -21 0 13 171 114 179 105 3 -3 -2 -11 -12 -18 -40 -24
-50 -36 -17 -19 19 10 44 19 55 19 22 2 620 346 645 371 13 14 13 14 -8 8 -12
-3 -52 -24 -89 -46 -55 -31 -74 -38 -100 -33 -23 4 -40 1 -60 -14 -15 -11 -39
-23 -53 -27 -14 -4 -50 -24 -80 -44 -30 -20 -94 -57 -142 -82 -48 -25 -98 -55
-111 -67 -25 -23 -47 -29 -47 -12 0 6 5 10 10 10 18 0 48 34 55 62 5 20 24 37
69 62 33 19 72 46 85 60 14 14 32 26 41 26 8 0 26 7 38 16 12 8 59 34 105 56
45 23 101 54 124 70 23 15 44 28 46 28 3 0 34 18 68 39 35 22 69 39 74 37 6
-1 11 -28 13 -60z m-748 45 c0 -5 -30 -27 -67 -48 -85 -47 -83 -47 -83 -34 0
9 126 90 143 91 4 0 7 -4 7 -9z m438 -3 c-4 -13 -125 -88 -141 -88 -21 0 3 23
63 59 71 43 84 47 78 29z m-635 -43 c12 -1 25 -3 28 -4 3 0 5 -23 4 -50 -1
-42 -6 -53 -32 -75 -26 -22 -32 -34 -31 -68 0 -22 4 -35 7 -29 9 14 163 103
169 97 9 -10 -11 -25 -84 -67 -73 -42 -75 -44 -47 -50 17 -3 35 -9 40 -12 6
-4 30 -9 54 -12 24 -3 45 -8 48 -11 16 -15 6 -45 -24 -74 -19 -19 -35 -43 -35
-55 0 -12 -13 -31 -30 -43 -21 -16 -30 -31 -30 -51 0 -32 -27 -60 -88 -90 -32
-16 -43 -18 -47 -9 -2 7 -6 65 -9 128 -5 139 -5 100 1 312 l4 177 27 3 c15 2
33 -1 40 -6 7 -5 22 -10 35 -11z m591 -37 c-2 -7 -53 -40 -111 -73 -127 -71
-127 -71 -121 -55 4 12 215 140 230 140 4 0 5 -6 2 -12z m-220 -33 c-11 -8
-22 -15 -26 -15 -16 0 -7 19 14 35 28 19 39 0 12 -20z m-181 -2 c-7 -2 -13
-11 -13 -18 0 -15 -22 -25 -53 -25 -18 1 -14 5 18 25 22 14 45 25 50 24 6 0 4
-3 -2 -6z m115 -25 c-4 -12 -224 -146 -241 -147 -28 -2 13 30 113 89 120 71
134 78 128 58z m-238 -33 c0 -12 -66 -55 -85 -55 -17 0 1 22 38 44 50 30 47
29 47 11z m440 -4 c0 -6 -10 -17 -22 -26 -28 -19 -39 0 -12 20 22 17 34 19 34
6z m-252 -43 c-4 -10 -122 -88 -134 -88 -2 0 -4 6 -4 13 0 6 29 28 63 48 68
40 81 45 75 27z m76 -18 c-25 -22 -146 -81 -142 -69 6 18 142 98 147 86 2 -5
-1 -12 -5 -17z m376 21 c0 -13 -50 -44 -58 -36 -4 4 4 15 17 26 25 20 41 24
41 10z m-280 -10 c0 -11 -231 -143 -238 -136 -9 9 7 20 118 84 107 62 120 68
120 52z m200 -34 c0 -11 -136 -97 -154 -97 -23 0 5 25 72 64 90 53 82 49 82
33z m-360 -106 c0 -5 -34 -30 -75 -55 -49 -30 -75 -41 -75 -32 0 8 30 32 68
54 72 43 82 47 82 33z m180 0 c0 -8 -163 -111 -176 -111 -2 0 -4 6 -4 13 0 6
38 33 83 59 87 50 97 54 97 39z m-301 -127 c-11 -14 -81 -54 -94 -54 -30 0 60
67 94 69 11 1 11 -2 0 -15z m111 -131 c0 -5 -52 -37 -114 -72 -63 -36 -112
-70 -110 -75 2 -6 -19 -23 -46 -38 -50 -28 -50 -28 -47 -5 3 17 39 43 153 109
147 87 164 95 164 81z m-15 -63 c11 -17 -5 -50 -24 -50 -17 0 -50 27 -40 33 2
1 13 7 24 14 25 15 32 15 40 3z m-61 -67 c-5 -2 -58 -32 -119 -68 -60 -35
-111 -60 -113 -55 -2 6 -24 -2 -48 -16 -24 -14 -44 -21 -44 -16 0 15 83 63 90
52 3 -5 57 21 120 59 63 37 117 63 119 57 2 -5 0 -11 -5 -13z m-194 3 c0 -9
-121 -78 -127 -72 -8 8 -8 8 57 45 52 29 70 36 70 27z m270 -13 c-1 -4 -32
-24 -67 -44 -36 -20 -59 -39 -52 -41 7 -2 -32 -30 -86 -61 -90 -51 -100 -55
-103 -37 -4 25 -10 25 -47 0 -32 -21 -45 -25 -45 -12 0 7 111 72 124 72 4 0 4
-4 1 -10 -12 -20 12 -8 140 69 72 43 132 77 133 75 2 -1 3 -6 2 -11z m-20 -68
c0 -8 -18 -24 -40 -35 -41 -21 -50 -17 -27 10 13 16 47 38 60 39 4 1 7 -6 7
-14z m-130 -94 c0 -5 -36 -29 -80 -54 -103 -58 -105 -44 -2 17 86 51 82 49 82
37z m-120 -45 c0 -9 -121 -78 -127 -72 -8 8 -8 8 57 45 52 29 70 36 70 27z"/>
<path d="M1392 2590 c-38 -24 -42 -63 -6 -68 25 -4 74 33 74 56 0 14 -1 14
-12 1 -13 -16 -63 -49 -73 -49 -3 0 -5 6 -5 13 0 7 16 21 35 31 19 11 35 23
35 28 0 13 -12 10 -48 -12z"/>
<path d="M1275 2524 c-89 -46 -117 -76 -95 -98 7 -7 10 -5 10 7 0 10 30 34 78
61 45 27 69 46 57 46 -11 0 -33 -7 -50 -16z"/>
<path d="M1336 2511 c-4 -5 -35 -26 -71 -46 -56 -31 -81 -55 -58 -55 19 0 143
83 143 95 0 17 -6 19 -14 6z"/>
<path d="M1895 2294 c-98 -57 -183 -104 -187 -104 -4 0 -8 -31 -8 -70 0 -46 4
-70 11 -70 8 0 10 18 6 60 -4 33 -3 60 1 60 4 0 20 -7 36 -15 29 -15 29 -15
13 3 -9 10 -17 21 -17 24 0 5 159 101 264 159 l60 32 45 -24 c25 -13 84 -46
131 -74 47 -27 107 -61 133 -75 l48 -25 -28 -22 c-23 -19 -24 -21 -7 -17 56
15 29 -99 -32 -135 -48 -28 -43 -46 6 -21 22 11 40 27 40 35 0 8 9 19 20 25
18 10 21 19 18 78 l-3 66 -160 93 c-88 52 -171 100 -185 107 -24 14 -35 9
-205 -90z"/>
<path d="M1998 2033 c-6 -8 -6 -18 0 -29 5 -10 7 -34 5 -54 -3 -21 0 -46 6
-56 10 -18 10 -17 11 4 0 12 7 25 16 29 10 3 12 8 5 12 -7 4 -3 19 10 41 l21
34 13 -30 c14 -33 69 -84 90 -84 8 0 15 -10 17 -22 4 -29 24 -34 31 -8 7 26
33 26 47 -1 9 -17 8 -25 -6 -40 -10 -11 -26 -18 -36 -16 -15 4 -18 -1 -18 -34
0 -22 7 -51 16 -65 15 -23 15 -26 0 -43 -9 -10 -14 -25 -10 -35 4 -9 -7 -36
-26 -67 -31 -47 -32 -52 -21 -91 7 -22 11 -41 9 -43 -2 -1 -48 -17 -103 -36
-55 -19 -102 -35 -104 -36 -2 -1 2 -9 9 -18 7 -8 10 -24 7 -35 -3 -11 -4 -20
-4 -20 1 1 38 9 81 20 l80 18 102 -59 c57 -32 107 -59 113 -59 27 0 25 132 -3
175 -20 30 -17 38 24 55 16 7 30 19 30 27 0 15 -6 13 -51 -18 l-26 -18 -11 36
c-12 40 -9 53 14 53 32 0 73 31 85 65 7 19 16 35 20 35 10 0 69 -100 69 -117
0 -13 -5 -12 -25 7 -14 13 -38 26 -53 27 -26 4 -25 3 11 -23 l38 -28 -7 -95
c-3 -53 -7 -98 -7 -101 -1 -3 5 -16 12 -29 13 -23 11 -27 -19 -54 -19 -17 -38
-26 -48 -23 -10 4 -6 -2 7 -13 14 -10 30 -17 36 -15 7 3 21 -56 40 -162 17
-91 33 -171 37 -177 20 -33 18 23 -7 200 -21 141 -29 231 -27 312 1 63 4 116
7 119 3 3 11 -3 19 -13 22 -31 36 -8 36 60 0 61 -1 64 -46 112 l-46 48 41 -49
c38 -46 52 -76 33 -76 -4 0 -16 14 -25 30 -10 17 -34 42 -53 58 -19 15 -34 35
-34 45 0 34 -30 89 -76 140 -45 51 -46 52 -39 105 5 43 3 57 -11 73 -9 10 -24
19 -31 19 -8 0 -23 10 -33 23 -17 20 -26 22 -125 22 -71 0 -110 -4 -117 -12z
m241 -50 c25 -18 40 -36 41 -49 0 -44 -103 -16 -149 40 -36 43 49 50 108 9z
m95 -204 c72 -85 89 -209 29 -209 -12 0 -14 10 -8 58 6 50 4 61 -15 85 -15 18
-31 27 -51 27 -37 0 -48 24 -24 50 25 27 39 25 69 -11z m-4 -69 c11 -11 20
-26 20 -32 -1 -38 -30 -141 -43 -156 -11 -12 -14 -30 -10 -64 7 -56 -10 -88
-58 -112 -38 -19 -73 -21 -63 -5 5 9 -12 11 -64 7 -39 -3 -69 -2 -67 2 3 4 31
18 62 31 75 29 98 54 99 104 0 22 10 77 23 122 17 63 20 87 11 103 -10 19 -8
20 30 20 27 0 47 -7 60 -20z m7 -397 c-6 -9 -6 -13 2 -13 6 0 11 -9 11 -20 0
-22 -25 -27 -37 -7 -4 7 -26 17 -47 22 -52 13 -55 27 -10 48 22 11 40 29 47
47 l11 29 17 -47 c11 -32 13 -51 6 -59z"/>
<path d="M1740 2016 c0 -7 61 -48 135 -91 121 -69 135 -80 135 -104 0 -16 10
-37 25 -51 32 -30 32 -40 -1 -40 -14 0 -34 -5 -44 -10 -15 -8 -41 3 -134 59
-71 42 -116 64 -116 56 0 -14 179 -125 202 -125 7 0 -5 -17 -26 -37 -37 -34
-40 -35 -48 -17 -7 18 -8 18 -5 -2 1 -11 -4 -28 -12 -37 -12 -15 -17 -14 -56
13 -49 34 -55 36 -55 17 0 -8 18 -22 40 -32 37 -17 53 -35 30 -35 -5 0 -28
-27 -50 -61 -41 -59 -42 -60 -65 -45 -13 9 -63 39 -112 67 -48 29 -90 55 -93
58 -3 3 -9 7 -15 8 -5 1 -19 5 -30 9 -11 4 -18 5 -15 2 10 -10 287 -168 295
-168 5 0 22 -11 40 -24 30 -23 32 -30 50 -146 10 -67 20 -118 24 -112 3 5 30
21 59 36 28 14 52 28 52 31 0 2 -14 12 -30 20 -30 16 -30 15 -18 -4 11 -18 10
-23 -7 -35 -41 -31 -64 -12 -65 52 0 16 4 21 13 16 6 -4 4 2 -5 13 -22 24 -23
37 -3 29 21 -8 19 7 -4 21 -10 6 -21 26 -25 43 -5 25 0 40 21 69 21 29 96 91
133 109 4 1 4 -27 2 -63 -4 -56 -1 -68 14 -80 11 -8 24 -15 29 -15 6 0 11 47
13 115 2 77 0 115 -7 115 -6 0 -11 -15 -11 -34 0 -36 -14 -55 -25 -36 -12 19
16 70 46 86 16 8 29 22 29 32 0 10 14 26 30 35 36 22 39 37 7 37 -31 0 -54 26
-62 71 -4 24 -15 41 -33 51 -211 124 -252 146 -252 134z m264 -348 c-11 -13
-31 -39 -44 -59 -13 -21 -38 -41 -57 -48 -19 -7 -51 -30 -73 -52 -46 -47 -67
-51 -45 -10 21 41 193 191 218 191 20 0 20 0 1 -22z"/>
<path d="M2424 1986 c-7 -15 -7 -30 -1 -44 13 -28 2 -64 -29 -101 -20 -25 -22
-31 -10 -31 9 0 21 11 25 24 5 13 17 26 25 29 12 5 16 21 16 71 0 70 -9 88
-26 52z"/>
<path d="M1701 1928 c-1 -31 4 -60 9 -63 12 -7 12 58 0 95 -6 19 -8 12 -9 -32z"/>
<path d="M2426 1804 c-3 -9 -3 -21 1 -27 4 -7 10 -30 14 -52 6 -34 7 -30 8 28
1 63 -9 87 -23 51z"/>
<path d="M1947 1793 c-10 -10 -8 -25 2 -19 5 4 11 0 14 -6 2 -7 8 -10 12 -6 9
9 -1 38 -13 38 -5 0 -12 -3 -15 -7z"/>
<path d="M1540 1639 l-25 -20 26 12 c24 10 35 7 91 -25 36 -20 69 -36 74 -36
11 0 -17 18 -86 58 l-55 31 -25 -20z"/>
<path d="M1839 1386 c12 -13 36 -26 52 -28 16 -3 29 -3 29 -2 0 4 -88 54 -96
54 -4 0 3 -11 15 -24z"/>
<path d="M1476 1341 c26 -23 348 -201 365 -201 11 0 37 11 59 25 22 14 37 19
34 12 -3 -8 0 -25 5 -39 7 -19 6 -29 -5 -40 -16 -16 -64 -13 -64 4 0 5 -5 6
-10 3 -20 -12 11 -35 46 -35 23 0 38 7 49 22 9 14 11 24 5 26 -5 2 -10 8 -10
14 0 6 7 8 15 4 9 -3 15 0 15 10 0 11 -6 13 -20 9 -12 -4 -20 -2 -20 5 0 7 9
14 20 17 11 3 20 11 20 18 0 7 23 27 50 44 28 17 50 33 50 36 0 7 -41 -14
-141 -75 -46 -27 -90 -50 -98 -50 -8 0 -91 45 -186 100 -155 90 -208 117 -179
91z"/>
<path d="M1040 1006 c0 -249 2 -295 15 -299 8 -4 17 -2 20 3 4 6 7 103 8 217
l2 206 63 35 c57 31 61 35 45 47 -15 12 -24 10 -60 -11 -23 -13 -44 -24 -47
-24 -3 0 -6 22 -6 48 0 44 -12 72 -32 72 -4 0 -8 -132 -8 -294z"/>
<path d="M2844 1241 c-89 -40 -154 -121 -154 -191 l0 -31 -27 21 c-54 42 -128
64 -116 34 4 -10 13 -14 28 -10 16 4 34 -5 65 -32 24 -20 45 -35 46 -32 1 3 6
1 11 -4 5 -6 2 -6 -6 -1 -11 6 -13 4 -6 -11 24 -58 34 -92 35 -117 0 -33 16
-28 22 8 3 13 1 22 -3 19 -5 -3 -9 2 -9 11 0 38 58 115 67 88 3 -8 16 -3 40
13 20 13 41 24 47 23 6 0 2 -6 -8 -12 -71 -44 -109 -94 -120 -157 -5 -29 -4
-31 4 -12 5 13 14 21 19 17 11 -6 8 -52 -4 -63 -4 -4 -5 -1 -1 6 10 17 -9 15
-28 -3 -21 -22 -42 -20 -25 2 8 9 9 14 2 10 -7 -5 -13 10 -18 45 -9 70 -38
130 -82 169 -32 27 -37 29 -45 14 -8 -13 -12 -14 -25 -3 -14 11 -14 9 0 -19
13 -24 25 -33 56 -38 40 -7 53 -16 64 -47 10 -28 -12 -21 -25 7 -7 16 -19 25
-35 25 -21 0 -23 -2 -12 -22 15 -29 28 -38 57 -38 12 0 22 -5 22 -11 0 -7 -10
-9 -25 -7 -29 6 -31 0 -11 -28 8 -10 12 -29 9 -42 -4 -18 1 -25 31 -37 57 -24
116 -3 116 41 0 12 5 26 10 29 19 12 10 25 -17 26 -20 1 -22 3 -8 6 11 2 29 6
40 8 11 2 26 13 33 25 11 18 10 20 -13 20 -14 0 -25 -5 -25 -11 0 -5 6 -7 13
-3 8 5 9 4 2 -3 -15 -16 -55 -26 -55 -14 0 14 77 91 90 91 19 0 10 -20 -17
-35 l-28 -16 34 6 c19 3 35 6 36 8 1 1 16 22 35 46 l34 43 -45 -7 c-24 -3 -61
-15 -81 -25 -21 -9 -38 -14 -38 -9 0 5 -15 6 -32 3 l-33 -6 39 24 c21 13 43
33 47 46 7 20 5 22 -20 22 -25 0 -29 -4 -27 -24 2 -14 -3 -27 -10 -30 -18 -7
-19 38 -1 51 6 6 29 16 50 22 20 7 37 18 37 24 0 7 11 36 25 65 13 28 21 52
17 52 -4 0 -26 -9 -48 -19z m-47 -58 c-39 -42 -67 -111 -67 -170 0 -28 -4 -55
-10 -58 -16 -10 -12 86 5 137 15 42 73 118 91 118 4 0 -4 -12 -19 -27z"/>
<path d="M1230 1196 c8 -8 107 -66 220 -130 113 -64 193 -106 178 -94 -14 13
-52 38 -84 57 -43 26 -53 36 -41 40 15 6 15 8 -3 19 -11 7 -20 9 -19 5 3 -21
-3 -22 -27 -7 -14 10 -21 20 -15 23 6 4 1 13 -12 20 -20 13 -21 13 -8 -2 23
-28 -2 -19 -95 33 -89 50 -121 62 -94 36z"/>
<path d="M172 1158 c-20 -20 -14 -52 19 -91 35 -43 51 -43 22 0 -38 55 -39 59
-8 39 l30 -19 -24 27 c-14 14 -22 28 -19 31 5 5 50 -42 76 -81 7 -10 10 -13 7
-6 -3 6 -2 12 2 12 18 0 53 -91 52 -133 0 -23 -3 -36 -6 -29 -2 6 -9 10 -14 6
-5 -3 -9 13 -9 34 0 28 -5 42 -17 46 -17 7 -33 -9 -33 -31 0 -19 -9 -16 -31
10 -17 19 -19 19 -10 2 5 -11 16 -29 24 -39 13 -18 15 -17 26 14 6 18 13 31
16 28 3 -3 0 -19 -6 -36 -6 -17 -9 -39 -6 -49 4 -14 5 -13 6 5 0 12 5 22 9 22
12 0 30 -42 25 -58 -4 -10 -8 -10 -20 -1 -12 11 -13 8 -8 -17 5 -27 5 -28 -6
-6 -13 24 -32 31 -23 7 8 -20 -10 -19 -30 1 -24 23 -19 37 10 31 14 -2 22 -1
17 4 -5 5 -23 10 -41 12 -18 2 -35 7 -40 12 -4 4 12 5 35 2 l43 -5 -33 45
c-17 25 -38 48 -44 50 -7 3 -13 10 -13 15 0 6 7 4 16 -3 19 -16 74 -21 74 -8
0 13 -45 29 -80 29 -24 0 -29 -5 -35 -37 -5 -28 -3 -40 8 -48 14 -10 14 -12 1
-21 -23 -14 -6 -44 27 -51 30 -6 38 -18 17 -27 -25 -10 25 -36 67 -36 45 0 74
22 76 56 0 18 1 18 8 -1 13 -32 19 50 8 109 -22 123 -118 231 -165 184z m23
-236 c-20 -4 -35 14 -35 43 1 18 4 16 27 -10 23 -27 24 -30 8 -33z"/>
<path d="M2413 1092 c-7 -4 -13 -36 -15 -71 l-3 -64 -80 -48 c-44 -26 -82 -46
-83 -44 -2 2 2 29 8 60 13 61 11 69 -13 59 -9 -3 -18 -23 -22 -47 -15 -95 -18
-106 -33 -112 -44 -17 -242 -142 -242 -152 0 -7 -4 -13 -10 -13 -5 0 -10 11
-10 24 0 14 -4 28 -10 31 -5 3 -10 22 -10 41 0 21 4 33 10 29 6 -3 10 -3 10 2
-1 9 -50 47 -54 41 -2 -1 -1 -29 1 -60 4 -40 10 -58 19 -58 11 0 14 -47 16
-247 3 -213 5 -248 18 -248 13 0 15 26 18 161 2 128 6 165 17 174 8 7 15 26
15 42 0 26 -2 29 -15 18 -13 -10 -15 -9 -15 11 0 15 9 28 23 35 65 32 205 119
225 140 26 27 43 33 20 7 -21 -24 -35 -137 -17 -131 8 3 17 24 21 49 14 85 15
86 104 138 47 28 88 51 90 51 3 0 4 -87 3 -194 -1 -107 2 -199 5 -205 4 -5 13
-8 21 -4 13 4 15 50 15 299 0 162 -3 294 -7 294 -5 0 -13 -4 -20 -8z"/>
<path d="M1977 1050 c-12 -66 -31 -90 -71 -90 -41 0 -56 17 -63 70 -3 22 -9
40 -13 40 -10 0 7 -90 20 -105 17 -20 61 -27 91 -14 31 12 53 67 47 117 -3 21
-5 17 -11 -18z"/>
<path d="M824 1056 c-10 -7 -95 -57 -189 -111 -208 -119 -218 -125 -212 -132
3 -2 103 52 222 120 119 69 212 128 207 131 -5 3 -17 -1 -28 -8z"/>
<path d="M2292 1022 c-13 -9 -7 -68 9 -77 13 -9 17 8 10 47 -4 27 -10 35 -19
30z"/>
<path d="M2093 917 c-61 -36 -113 -73 -78 -55 35 18 155 91 155 94 0 7 -2 5
-77 -39z"/>
<path d="M1651 879 c-6 -34 -8 -65 -5 -70 5 -8 69 -29 89 -29 9 0 50 91 43 94
-2 1 -27 16 -56 34 -29 18 -55 32 -57 32 -1 0 -8 -28 -14 -61z m77 -23 c2 -10
-1 -23 -8 -30 -14 -14 -41 19 -33 40 8 20 37 13 41 -10z"/>
<path d="M1958 826 c-24 -18 -28 -29 -28 -69 0 -39 3 -47 18 -47 15 0 21 13
31 66 6 37 11 68 9 69 -2 2 -15 -7 -30 -19z"/>
<path d="M315 821 c-9 -11 -34 -22 -54 -24 l-36 -4 40 -1 c39 -2 85 19 85 39
0 15 -16 10 -35 -10z"/>
<path d="M1727 754 c-3 -11 -15 -35 -27 -54 l-22 -35 26 30 c31 36 34 16 5
-31 -23 -38 -18 -60 10 -44 14 7 20 25 24 67 5 60 -5 102 -16 67z"/>
<path d="M174 676 c-15 -38 33 -76 98 -76 47 0 90 19 84 37 -3 8 -1 11 4 8 6
-3 10 3 10 14 0 11 -4 22 -9 26 -10 6 -26 -31 -23 -55 1 -8 -1 -10 -3 -5 -3 6
-34 10 -69 9 -36 0 -63 2 -61 5 2 4 -3 17 -10 31 -13 23 -14 24 -21 6z"/>
<path d="M2627 664 c-21 -22 22 -84 57 -84 6 0 4 5 -4 10 -12 8 -12 10 5 10
11 0 35 -4 54 -10 45 -13 91 10 91 45 0 13 -4 27 -10 30 -5 3 -10 1 -10 -4 0
-26 -41 -51 -83 -51 -44 0 -68 12 -84 43 -5 10 -12 14 -16 11z"/>
<path d="M1648 628 c-24 -25 -25 -29 -10 -37 15 -8 13 -11 -11 -20 -53 -20
-83 -11 -55 17 21 21 -4 34 -30 16 -55 -38 0 -75 79 -54 39 11 79 54 64 68 -4
4 -10 1 -12 -5 -3 -7 -9 -13 -15 -13 -6 0 -3 12 7 26 22 35 16 36 -17 2z"/>
<path d="M1753 523 c-27 -18 -30 -48 -7 -57 28 -11 78 -6 104 10 24 14 23 15
-27 9 -44 -5 -53 -3 -53 10 0 10 10 15 34 15 19 0 37 4 40 9 3 4 -6 6 -19 3
-14 -2 -31 0 -38 6 -8 7 -19 5 -34 -5z"/>
</g>
</svg>
